# xmcd
#
# Track frame offsets:
#  150
#  10771
#  23607
#  35013
#  49543
#  60447
#  73737
#  85798
#  96118
#  107300
#  116681
#  128468
#  142461
#  155575
#
# Disc length: 2257 seconds
#
# Revision: 0
# Processed by: cddbd v1.5.1PL2 Copyright (c) Steve Scherf et al.
# Submitted via: Collectorz.com Music Collector 6.9
#
DISCID=af08cf0e
DTITLE=The Gary Waldrep Band - Family Album
DYEAR=2005
DGENRE=Bluegrass
TTITLE0=Down, Down, Down
TTITLE1=A Church, A Courtroom, and Then Goodbye
TTITLE2=Far, Far Away
TTITLE3=Have I Told You Lately (That I Love You)
TTITLE4=14 Days in Georgia
TTITLE5=Beautiful Prayer
TTITLE6=Loving You Too Well
TTITLE7=Wandering Boy
TTITLE8=Deal the Cards
TTITLE9=When the Devil Was My Shadow
TTITLE10=Lost to a Stranger
TTITLE11=Gold Watch and Chain
TTITLE12=Come See About Me
TTITLE13=Sand Mountain Banjo
EXTD=
EXTT0=
EXTT1=
EXTT2=
EXTT3=
EXTT4=
EXTT5=
EXTT6=
EXTT7=
EXTT8=
EXTT9=
EXTT10=
EXTT11=
EXTT12=
EXTT13=
PLAYORDER=
